<svg width="18" height="18" viewBox="0 0 18 18" fill="none" xmlns="http://www.w3.org/2000/svg">
<rect width="18" height="18" rx="9" fill="#AEAEAE"/>
<path fill-rule="evenodd" clip-rule="evenodd" d="M6.13256 5.39886C5.92736 5.19685 5.59846 5.20096 5.39794 5.40802C5.19742 5.61509 5.20122 5.9467 5.40642 6.14871L8.3029 9L5.40642 11.8513C5.20122 12.0533 5.19742 12.3849 5.39794 12.592C5.59846 12.799 5.92736 12.8031 6.13256 12.6011L9.04683 9.73233L11.8674 12.5089C12.0726 12.7109 12.4015 12.7068 12.6021 12.4998C12.8026 12.2927 12.7988 11.9611 12.5936 11.7591L9.79077 9L12.5936 6.24091C12.7988 6.03891 12.8026 5.70729 12.6021 5.50023C12.4015 5.29316 12.0726 5.28906 11.8674 5.49106L9.04683 8.26767L6.13256 5.39886Z" fill="white" stroke="white" stroke-linecap="round"/>
</svg>
