<svg width="20" height="21" viewBox="0 0 20 21" fill="none" xmlns="http://www.w3.org/2000/svg">
<path fill-rule="evenodd" clip-rule="evenodd" d="M10.8334 3.83332H16.6667V7.16666H10.8334V3.83332ZM18.3334 3.83332L18.3334 7.16666V8.83332V12.1667V13.8333L18.3334 17.1667C18.3334 18.0871 17.5872 18.8333 16.6667 18.8333H3.33341C2.41294 18.8333 1.66675 18.0871 1.66675 17.1667V3.83332C1.66675 2.91285 2.41294 2.16666 3.33341 2.16666H16.6667C17.5872 2.16666 18.3334 2.91285 18.3334 3.83332ZM16.6667 12.1667V8.83332H10.8334V12.1667H16.6667ZM10.8334 13.8333H16.6667V17.1667L10.8334 17.1667V13.8333ZM9.16675 12.1667V8.83332H3.33341V12.1667H9.16675ZM3.33341 13.8333H9.16675V17.1667L3.33341 17.1667V13.8333ZM9.16675 3.83332V7.16666H3.33341V3.83332H9.16675Z" fill="#0069FF"/>
</svg>
