<svg width="20" height="21" viewBox="0 0 20 21" fill="none" xmlns="http://www.w3.org/2000/svg">
<path fill-rule="evenodd" clip-rule="evenodd" d="M10.8333 3.83332H16.6666V7.16666H10.8333V3.83332ZM18.3333 3.83332L18.3333 7.16666V8.83332V12.1667V13.8333L18.3333 17.1667C18.3333 18.0871 17.5871 18.8333 16.6666 18.8333H3.33329C2.41282 18.8333 1.66663 18.0871 1.66663 17.1667V3.83332C1.66663 2.91285 2.41282 2.16666 3.33329 2.16666H16.6666C17.5871 2.16666 18.3333 2.91285 18.3333 3.83332ZM16.6666 12.1667V8.83332H10.8333V12.1667H16.6666ZM10.8333 13.8333H16.6666V17.1667L10.8333 17.1667V13.8333ZM9.16662 12.1667V8.83332H3.33329V12.1667H9.16662ZM3.33329 13.8333H9.16662V17.1667L3.33329 17.1667V13.8333ZM9.16662 3.83332V7.16666H3.33329V3.83332H9.16662Z" fill="#666666"/>
</svg>
