<svg width="20" height="20" viewBox="0 0 20 20" fill="none" xmlns="http://www.w3.org/2000/svg">
<path fill-rule="evenodd" clip-rule="evenodd" d="M7.5 2.50001C7.5 2.03977 7.1269 1.66667 6.66667 1.66667C6.20643 1.66667 5.83333 2.03977 5.83333 2.50001V3.33334H4.16667C3.24619 3.33334 2.5 4.07953 2.5 5.00001V9.16667V16.6667C2.5 17.5871 3.24619 18.3333 4.16667 18.3333H15.8333C16.7538 18.3333 17.5 17.5871 17.5 16.6667V9.16667V5.00001C17.5 4.07953 16.7538 3.33334 15.8333 3.33334H14.1667V2.50001C14.1667 2.03977 13.7936 1.66667 13.3333 1.66667C12.8731 1.66667 12.5 2.03977 12.5 2.50001V3.33334H7.5V2.50001ZM15.8333 8.33334V5.00001H14.1667V5.83334C14.1667 6.29358 13.7936 6.66667 13.3333 6.66667C12.8731 6.66667 12.5 6.29358 12.5 5.83334V5.00001H7.5V5.83334C7.5 6.29358 7.1269 6.66667 6.66667 6.66667C6.20643 6.66667 5.83333 6.29358 5.83333 5.83334V5.00001H4.16667V8.33334H15.8333ZM4.16667 10H15.8333V16.6667H4.16667V10Z" fill="#999999"/>
</svg>
