<svg width="24" height="24" viewBox="0 0 24 24" fill="none" xmlns="http://www.w3.org/2000/svg">
<rect width="24" height="24" rx="12" fill="#F5F5F5"/>
<path fill-rule="evenodd" clip-rule="evenodd" d="M8.17675 7.19848C7.90315 6.92914 7.46461 6.93461 7.19725 7.2107C6.92989 7.48678 6.93496 7.92894 7.20856 8.19827L11.0705 12L7.20856 15.8017C6.93496 16.0711 6.92989 16.5132 7.19725 16.7893C7.46461 17.0654 7.90315 17.0709 8.17675 16.8015L12.0624 12.9764L15.8233 16.6786C16.0969 16.9479 16.5354 16.9424 16.8027 16.6664C17.0701 16.3903 17.065 15.9481 16.7914 15.6788L13.0544 12L16.7914 8.32122C17.065 8.05188 17.0701 7.60973 16.8027 7.33364C16.5354 7.05755 16.0969 7.05208 15.8233 7.32142L12.0624 11.0236L8.17675 7.19848Z" fill="#333333"/>
<path fill-rule="evenodd" clip-rule="evenodd" d="M7.82599 7.5548C7.75066 7.48065 7.63092 7.48162 7.55644 7.55853C7.47974 7.63773 7.48171 7.76555 7.55933 7.84195L11.7833 12L7.55933 16.158C7.48171 16.2345 7.47974 16.3623 7.55644 16.4415C7.63092 16.5184 7.75066 16.5194 7.82599 16.4452L12.0624 12.2748L16.174 16.3223C16.2493 16.3964 16.3691 16.3954 16.4436 16.3185C16.5203 16.2393 16.5183 16.1115 16.4407 16.0351L12.3416 12L16.4407 7.9649C16.5183 7.88849 16.5203 7.76068 16.4436 7.68147C16.3691 7.60456 16.2493 7.60359 16.174 7.67774L12.0624 11.7252L7.82599 7.5548ZM6.83806 6.86287C7.2983 6.38761 8.05563 6.37763 8.52751 6.84216L12.0624 10.3219L15.4725 6.9651C15.9444 6.50057 16.7017 6.51055 17.1619 6.98581C17.6199 7.45878 17.6118 8.21527 17.1422 8.67754L13.7671 12L17.1422 15.3225C17.6118 15.7847 17.6199 16.5412 17.1619 17.0142C16.7017 17.4894 15.9444 17.4994 15.4725 17.0349L12.0624 13.6781L8.52751 17.1578C8.05563 17.6224 7.2983 17.6124 6.83806 17.1371C6.38005 16.6642 6.3882 15.9077 6.8578 15.4454L10.3578 12L6.8578 8.5546C6.3882 8.09233 6.38005 7.33584 6.83806 6.86287Z" fill="#333333"/>
</svg>
