<svg width="20" height="20" viewBox="0 0 20 20" fill="none" xmlns="http://www.w3.org/2000/svg">
<path fill-rule="evenodd" clip-rule="evenodd" d="M3.33317 10.0003C3.33317 6.31843 6.31794 3.33366 9.99984 3.33366C13.6817 3.33366 16.6665 6.31843 16.6665 10.0003C16.6665 13.6822 13.6817 16.667 9.99984 16.667C6.31794 16.667 3.33317 13.6822 3.33317 10.0003ZM9.99984 1.66699C5.39746 1.66699 1.6665 5.39795 1.6665 10.0003C1.6665 14.6027 5.39746 18.3337 9.99984 18.3337C14.6022 18.3337 18.3332 14.6027 18.3332 10.0003C18.3332 5.39795 14.6022 1.66699 9.99984 1.66699ZM9.99984 14.584C9.5396 14.584 9.1665 14.2109 9.1665 13.7506V8.77725C9.1665 8.31701 9.5396 7.94391 9.99984 7.94391C10.4601 7.94391 10.8332 8.31701 10.8332 8.77725V13.7506C10.8332 14.2109 10.4601 14.584 9.99984 14.584ZM9.1665 6.24954C9.1665 5.7896 9.5396 5.41675 9.99984 5.41675C10.4601 5.41675 10.8332 5.7896 10.8332 6.24954C10.8332 6.70948 10.4601 7.08233 9.99984 7.08233C9.5396 7.08233 9.1665 6.70948 9.1665 6.24954Z" fill="#0069FF"/>
</svg>
