<svg width="19" height="16" viewBox="0 0 19 16" fill="none" xmlns="http://www.w3.org/2000/svg">
<path d="M1 8C1 5.78909 3.091 4 5.675 4H14.6C16.4785 4 18 5.30182 18 6.90909C18 8.51636 16.4785 9.81818 14.6 9.81818H7.375C6.202 9.81818 5.25 9.00364 5.25 8C5.25 6.99636 6.202 6.18182 7.375 6.18182H13.75V7.63636H7.2985C6.831 7.63636 6.831 8.36364 7.2985 8.36364H14.6C15.535 8.36364 16.3 7.70909 16.3 6.90909C16.3 6.10909 15.535 5.45455 14.6 5.45455H5.675C4.0345 5.45455 2.7 6.59636 2.7 8C2.7 9.40364 4.0345 10.5455 5.675 10.5455H13.75V12H5.675C3.091 12 1 10.2109 1 8Z" fill="#666666"/>
</svg>
