<svg width="24" height="24" viewBox="0 0 24 24" fill="none" xmlns="http://www.w3.org/2000/svg">
<path fill-rule="evenodd" clip-rule="evenodd" d="M11.594 7.51504C11.249 7.08378 11.3189 6.45448 11.7502 6.10948C12.1814 5.76447 12.8107 5.83439 13.1557 6.26565L16.656 10.641C17.2403 11.3714 17.2403 12.4093 16.656 13.1397L13.1557 17.515C12.8107 17.9463 12.1814 18.0162 11.7502 17.6712C11.3189 17.3262 11.249 16.6969 11.594 16.2656L15.0942 11.8903L11.594 7.51504ZM5.59399 7.51504C5.24898 7.08378 5.31891 6.45448 5.75017 6.10948C6.18143 5.76447 6.81072 5.83439 7.15573 6.26565L10.656 10.641C11.2403 11.3714 11.2403 12.4093 10.656 13.1397L7.15573 17.515C6.81072 17.9463 6.18143 18.0162 5.75017 17.6712C5.31891 17.3262 5.24899 16.6969 5.59399 16.2656L9.09424 11.8903L5.59399 7.51504Z" fill="#0B3F98"/>
</svg>
