<svg width="24" height="24" viewBox="0 0 24 24" fill="none" xmlns="http://www.w3.org/2000/svg">
<path fill-rule="evenodd" clip-rule="evenodd" d="M10.5762 7.49322C10.9261 7.06595 10.8634 6.43589 10.4361 6.08595C10.0089 5.73601 9.37881 5.79869 9.02887 6.22596L5.45272 10.5923C4.84909 11.3294 4.84909 12.3898 5.45272 13.1268L9.02887 17.4932C9.37881 17.9205 10.0089 17.9832 10.4361 17.6332C10.8634 17.2833 10.9261 16.6532 10.5762 16.226L7 11.8596L10.5762 7.49322ZM18.7664 7.49322C19.1163 7.06595 19.0536 6.43589 18.6263 6.08595C18.1991 5.73601 17.569 5.79869 17.2191 6.22596L13.6429 10.5923C13.0393 11.3294 13.0393 12.3898 13.6429 13.1268L17.2191 17.4932C17.569 17.9205 18.1991 17.9832 18.6263 17.6332C19.0536 17.2833 19.1163 16.6532 18.7664 16.226L15.1902 11.8596L18.7664 7.49322Z" fill="#0B3F98"/>
</svg>
