<svg width="24" height="24" viewBox="0 0 24 24" fill="none" xmlns="http://www.w3.org/2000/svg">
<path fill-rule="evenodd" clip-rule="evenodd" d="M10.5762 7.49334C10.9261 7.06607 10.8634 6.43602 10.4361 6.08607C10.0089 5.73613 9.37881 5.79882 9.02887 6.22609L5.45272 10.5925C4.84909 11.3295 4.84909 12.39 5.45272 13.127L9.02887 17.4933C9.37881 17.9206 10.0089 17.9833 10.4361 17.6334C10.8634 17.2834 10.9261 16.6534 10.5762 16.2261L7 11.8597L10.5762 7.49334ZM18.7664 7.49334C19.1163 7.06607 19.0536 6.43602 18.6263 6.08607C18.1991 5.73613 17.569 5.79882 17.2191 6.22609L13.6429 10.5925C13.0393 11.3295 13.0393 12.39 13.6429 13.127L17.2191 17.4933C17.569 17.9206 18.1991 17.9833 18.6263 17.6334C19.0536 17.2834 19.1163 16.6534 18.7664 16.2261L15.1902 11.8597L18.7664 7.49334Z" fill="#999999"/>
</svg>
