<svg width="16" height="17" viewBox="0 0 16 17" fill="none" xmlns="http://www.w3.org/2000/svg">
<path fill-rule="evenodd" clip-rule="evenodd" d="M2.17298 7.67058C1.7149 7.67058 1.34356 8.04192 1.34356 8.5C1.34356 8.95808 1.7149 9.32942 2.17298 9.32942L7.24165 9.32942L7.24165 14.3981C7.24165 14.8562 7.61299 15.2275 8.07107 15.2275C8.52914 15.2275 8.90049 14.8562 8.90049 14.3981L8.90049 9.32942L13.9692 9.32942C14.4272 9.32942 14.7986 8.95808 14.7986 8.5C14.7986 8.04192 14.4272 7.67058 13.9692 7.67058L8.90049 7.67058L8.90049 2.60191C8.90049 2.14383 8.52914 1.77249 8.07107 1.77249C7.61299 1.77249 7.24165 2.14383 7.24165 2.60191L7.24165 7.67058L2.17298 7.67058Z" fill="white"/>
</svg>
