<svg width="16" height="16" viewBox="0 0 16 16" fill="none" xmlns="http://www.w3.org/2000/svg">
<path fill-rule="evenodd" clip-rule="evenodd" d="M6.10959 3.77273C6.10959 3.63286 6.21999 3.51948 6.35616 3.51948H9.64384C9.78002 3.51948 9.89041 3.63286 9.89041 3.77273V4.44805C9.89041 4.58791 9.78002 4.7013 9.64384 4.7013H6.35617C6.21999 4.7013 6.10959 4.58791 6.10959 4.44805V3.77273ZM4.64762 4.7013C4.6361 4.61859 4.63014 4.53403 4.63014 4.44805V3.77273C4.63014 2.79368 5.40291 2 6.35616 2H9.64384C10.5971 2 11.3699 2.79368 11.3699 3.77273V4.44805C11.3699 4.53403 11.3639 4.61859 11.3524 4.7013H11.9452H13.2603C13.6688 4.7013 14 5.04144 14 5.46104C14 5.88063 13.6688 6.22078 13.2603 6.22078H12.6849V13.2273C12.6849 14.2063 11.9122 15 10.9589 15H5.13252C4.1874 15 3.41804 14.2193 3.40662 13.2487L3.32395 6.22078H2.73973C2.33119 6.22078 2 5.88063 2 5.46104C2 5.04144 2.33119 4.7013 2.73973 4.7013H4.05479H4.64762ZM6.35617 6.22078H4.80351L4.88597 13.2303C4.8876 13.369 4.99751 13.4805 5.13252 13.4805H10.9589C11.0951 13.4805 11.2055 13.3671 11.2055 13.2273V6.22078H9.64384H6.35617ZM7.42466 7.48701C7.42466 7.06742 7.09347 6.72727 6.68493 6.72727C6.27639 6.72727 5.94521 7.06742 5.94521 7.48701V11.539C5.94521 11.9585 6.27639 12.2987 6.68493 12.2987C7.09347 12.2987 7.42466 11.9585 7.42466 11.539V7.48701ZM9.31507 6.72727C9.72361 6.72727 10.0548 7.06742 10.0548 7.48701V11.539C10.0548 11.9585 9.72361 12.2987 9.31507 12.2987C8.90653 12.2987 8.57534 11.9585 8.57534 11.539V7.48701C8.57534 7.06742 8.90653 6.72727 9.31507 6.72727Z" fill="#0069FF"/>
</svg>
