<svg width="24" height="24" viewBox="0 0 24 24" fill="none" xmlns="http://www.w3.org/2000/svg">
<rect width="24" height="24" rx="12" fill="#F5F5F5"/>
<path fill-rule="evenodd" clip-rule="evenodd" d="M8.17675 7.19848C7.90315 6.92914 7.46461 6.93461 7.19725 7.2107C6.92989 7.48678 6.93496 7.92894 7.20856 8.19827L11.0705 12L7.20856 15.8017C6.93496 16.0711 6.92989 16.5132 7.19725 16.7893C7.46461 17.0654 7.90315 17.0709 8.17675 16.8015L12.0624 12.9764L15.8233 16.6786C16.0969 16.9479 16.5354 16.9424 16.8027 16.6664C17.0701 16.3903 17.065 15.9481 16.7914 15.6788L13.0544 12L16.7914 8.32122C17.065 8.05188 17.0701 7.60973 16.8027 7.33364C16.5354 7.05755 16.0969 7.05208 15.8233 7.32142L12.0624 11.0236L8.17675 7.19848Z" fill="#333333" stroke="#333333" stroke-linecap="round"/>
</svg>
