<svg width="24" height="24" viewBox="0 0 24 24" fill="none" xmlns="http://www.w3.org/2000/svg">
<path fill-rule="evenodd" clip-rule="evenodd" d="M13.4166 16.2261C13.0667 16.6534 13.1294 17.2835 13.5567 17.6334C13.9839 17.9834 14.614 17.9207 14.9639 17.4934L18.5401 13.127C19.1437 12.39 19.1437 11.3295 18.5401 10.5925L14.9639 6.22614C14.614 5.79887 13.9839 5.73619 13.5567 6.08613C13.1294 6.43607 13.0667 7.06613 13.4166 7.4934L16.9928 11.8598L13.4166 16.2261ZM5.22644 16.2261C4.8765 16.6534 4.93919 17.2835 5.36645 17.6334C5.79372 17.9834 6.42378 17.9207 6.77372 17.4934L10.3499 13.127C10.9535 12.39 10.9535 11.3295 10.3499 10.5925L6.77372 6.22614C6.42378 5.79887 5.79372 5.73619 5.36646 6.08613C4.93919 6.43607 4.8765 7.06613 5.22644 7.4934L8.80259 11.8598L5.22644 16.2261Z" fill="#999999"/>
</svg>
