<svg width="44" height="44" viewBox="0 0 44 44" fill="none" xmlns="http://www.w3.org/2000/svg">
<rect width="44" height="44" rx="8" fill="#EFF7FF"/>
<path fill-rule="evenodd" clip-rule="evenodd" d="M21.9999 12.6666C16.8453 12.6666 12.6666 16.8453 12.6666 21.9999C12.6666 27.1546 16.8453 31.3333 21.9999 31.3333C27.1546 31.3333 31.3333 27.1546 31.3333 21.9999C31.3333 16.8453 27.1546 12.6666 21.9999 12.6666ZM10.3333 21.9999C10.3333 15.5566 15.5566 10.3333 21.9999 10.3333C28.4432 10.3333 33.6666 15.5566 33.6666 21.9999C33.6666 28.4432 28.4432 33.6666 21.9999 33.6666C15.5566 33.6666 10.3333 28.4432 10.3333 21.9999Z" fill="#0069FF"/>
<path fill-rule="evenodd" clip-rule="evenodd" d="M27.3704 18.1528C27.8843 18.5415 27.9857 19.2732 27.597 19.7871L22.993 25.8732C22.2254 26.8879 20.7864 27.1006 19.7581 26.3514L16.6462 24.0841C16.1255 23.7047 16.0109 22.975 16.3903 22.4542C16.7697 21.9334 17.4995 21.8188 18.0203 22.1983L21.1321 24.4655L25.7362 18.3794C26.1249 17.8655 26.8566 17.7641 27.3704 18.1528Z" fill="#0069FF"/>
</svg>
